# xmcd
#
# Track frame offsets:
#	150
#	16985
#	35886
#	52620
#	69243
#	85256
#	101726
#	116479
#	130622
#	146374
#
# Disc length: 2175 seconds
#
# Revision: 1
# Processed by: cddbd v1.4PL0 Copyright (c) Steve Scherf et al.
# Submitted via: EasyCDDAExtractor 5.0.6
#
DISCID=7a087d0a
DTITLE=Charles Wilson - You Got To Pay To Play
DYEAR=1900
DGENRE=blues
TTITLE0=Show Me What You Working Wit
TTITLE1=Monkey Talk
TTITLE2=Brown Sugar
TTITLE3=Back and Forth
TTITLE4=Same Door
TTITLE5=Smack It Up
TTITLE6=All Caught Up
TTITLE7=Shadows On The Wall
TTITLE8=Your Body's Here
TTITLE9=You Got To Pay To Play
EXTD=
EXTT0=
EXTT1=
EXTT2=
EXTT3=
EXTT4=
EXTT5=
EXTT6=
EXTT7=
EXTT8=
EXTT9=
PLAYORDER=
